<svg xmlns="http://www.w3.org/2000/svg" viewBox="0 0 800 532" width="800" height="532" role="img" aria-labelledby="title desc" font-family="'Hiragino Sans', 'Hiragino Kaku Gothic ProN', 'Yu Gothic UI', 'Yu Gothic', Meiryo, 'Noto Sans JP', 'Noto Sans CJK JP', IPAPGothic, 'Segoe UI', 'Noto Sans', 'Helvetica Neue', Arial, 'Liberation Sans', sans-serif" lang="ja">
<title id="title">まとめ：良い指示書の書き方</title>
<desc id="desc">1. 目標と理由 — 何を・誰に・何のために; 2. 場所を正確に示す — ファイル名・データ・見本; 3. してはいけないことを書く — 元のファイルは変えない、何も入れない; 4. 測れる完了条件 — 数字と動き。「きれい」だけにしない; 5. エージェントに言い直してもらう — 不明点は先に質問してもらう. 依頼がはっきりしているほど、直す手間は減る。</desc>
<defs><linearGradient id="bg" x1="0" y1="0" x2="0" y2="1"><stop offset="0" stop-color="#FFFFFF"/><stop offset="1" stop-color="#F1F5F9"/></linearGradient></defs>
<rect x="1" y="1" width="798" height="530" rx="24" fill="url(#bg)" stroke="#E2E8F0" stroke-width="2"/>
<circle cx="760" cy="36" r="90" fill="#7C3AED" fill-opacity="0.06"/>
<circle cx="46" cy="502" r="110" fill="#2563EB" fill-opacity="0.05"/>
<text font-size="29" fill="#0F172A" text-anchor="middle" font-weight="700"><tspan x="400" y="55">まとめ：良い指示書の書き方</tspan></text>
<rect x="28" y="86.3" width="236" height="172.4" rx="18" fill="#EFF6FF" stroke="#2563EB" stroke-width="2"/>
<circle cx="146" cy="122.3" r="22" fill="#2563EB"/>
<circle cx="146" cy="122.3" r="19" fill="#FFFFFF" fill-opacity="0.2"/>
<text x="146" y="130.6" font-size="23.1" text-anchor="middle" font-family="'Segoe UI Emoji', 'Apple Color Emoji', 'Noto Color Emoji', sans-serif">🎯</text>
<circle cx="46" cy="104.3" r="12" fill="#1E3A8A"/>
<text x="46" y="109.3" font-size="13" font-weight="700" fill="#FFFFFF" text-anchor="middle">1</text>
<text font-size="18.5" fill="#1E3A8A" text-anchor="middle" font-weight="700"><tspan x="146" y="170.8">目標と理由</tspan></text>
<text font-size="15" fill="#475569" text-anchor="middle"><tspan x="146" y="195.7">何を・誰に・何のために</tspan></text>
<rect x="282" y="86.3" width="236" height="172.4" rx="18" fill="#F5F3FF" stroke="#7C3AED" stroke-width="2"/>
<circle cx="400" cy="122.3" r="22" fill="#7C3AED"/>
<circle cx="400" cy="122.3" r="19" fill="#FFFFFF" fill-opacity="0.2"/>
<text x="400" y="130.6" font-size="23.1" text-anchor="middle" font-family="'Segoe UI Emoji', 'Apple Color Emoji', 'Noto Color Emoji', sans-serif">🗂️</text>
<circle cx="300" cy="104.3" r="12" fill="#4C1D95"/>
<text x="300" y="109.3" font-size="13" font-weight="700" fill="#FFFFFF" text-anchor="middle">2</text>
<text font-size="18.5" fill="#4C1D95" text-anchor="middle" font-weight="700"><tspan x="400" y="170.8">場所を正確に示す</tspan></text>
<text font-size="15" fill="#475569" text-anchor="middle"><tspan x="400" y="195.7">ファイル名・データ・見本</tspan></text>
<rect x="536" y="86.3" width="236" height="172.4" rx="18" fill="#FFFBEB" stroke="#D97706" stroke-width="2"/>
<circle cx="654" cy="122.3" r="22" fill="#D97706"/>
<circle cx="654" cy="122.3" r="19" fill="#FFFFFF" fill-opacity="0.2"/>
<text x="654" y="130.6" font-size="23.1" text-anchor="middle" font-family="'Segoe UI Emoji', 'Apple Color Emoji', 'Noto Color Emoji', sans-serif">🚧</text>
<circle cx="554" cy="104.3" r="12" fill="#78350F"/>
<text x="554" y="109.3" font-size="13" font-weight="700" fill="#FFFFFF" text-anchor="middle">3</text>
<text font-size="18.5" fill="#78350F" text-anchor="middle" font-weight="700"><tspan x="654" y="170.8">してはいけないことを</tspan><tspan x="654" y="195.2">書く</tspan></text>
<text font-size="15" fill="#475569" text-anchor="middle"><tspan x="654" y="220.1">元のファイルは変えない、何も</tspan><tspan x="654" y="239.9">入れない</tspan></text>
<rect x="155" y="276.7" width="236" height="152.6" rx="18" fill="#ECFDF5" stroke="#059669" stroke-width="2"/>
<circle cx="273" cy="312.7" r="22" fill="#059669"/>
<circle cx="273" cy="312.7" r="19" fill="#FFFFFF" fill-opacity="0.2"/>
<text x="273" y="321" font-size="23.1" text-anchor="middle" font-family="'Segoe UI Emoji', 'Apple Color Emoji', 'Noto Color Emoji', sans-serif">✅</text>
<circle cx="173" cy="294.7" r="12" fill="#064E3B"/>
<text x="173" y="299.7" font-size="13" font-weight="700" fill="#FFFFFF" text-anchor="middle">4</text>
<text font-size="18.5" fill="#064E3B" text-anchor="middle" font-weight="700"><tspan x="273" y="361.2">測れる完了条件</tspan></text>
<text font-size="15" fill="#475569" text-anchor="middle"><tspan x="273" y="386.1">数字と動き。「きれい」だけに</tspan><tspan x="273" y="405.9">しない</tspan></text>
<rect x="409" y="276.7" width="236" height="152.6" rx="18" fill="#F0FDFA" stroke="#0D9488" stroke-width="2"/>
<circle cx="527" cy="312.7" r="22" fill="#0D9488"/>
<circle cx="527" cy="312.7" r="19" fill="#FFFFFF" fill-opacity="0.2"/>
<text x="527" y="321" font-size="23.1" text-anchor="middle" font-family="'Segoe UI Emoji', 'Apple Color Emoji', 'Noto Color Emoji', sans-serif">🔁</text>
<circle cx="427" cy="294.7" r="12" fill="#134E4A"/>
<text x="427" y="299.7" font-size="13" font-weight="700" fill="#FFFFFF" text-anchor="middle">5</text>
<text font-size="18.5" fill="#134E4A" text-anchor="middle" font-weight="700"><tspan x="527" y="361.2">エージェントに言い直</tspan><tspan x="527" y="385.6">してもらう</tspan></text>
<text font-size="15" fill="#475569" text-anchor="middle"><tspan x="527" y="410.6">不明点は先に質問してもらう</tspan></text>
<rect x="28" y="453.4" width="744" height="49.8" rx="16" fill="#FFFBEB" stroke="#D97706" stroke-width="1.5"/>
<text font-size="18" fill="#78350F" text-anchor="middle" font-weight="700"><tspan x="400" y="484.4">💡 依頼がはっきりしているほど、直す手間は減る。</tspan></text>
</svg>
